<mxfile host="app.diagrams.net" modified="2024-03-23T17:35:05.582Z" agent="Mozilla/5.0 (X11; Ubuntu; Linux x86_64; rv:123.0) Gecko/20100101 Firefox/123.0" etag="KFAq2gO2rOVZvNdGHxfH" version="24.0.7" type="github">
  <diagram name="Page-1" id="PVpVWnrb7OfxVeaUVZbv">
    <mxGraphModel dx="808" dy="454" grid="1" gridSize="10" guides="1" tooltips="1" connect="1" arrows="1" fold="1" page="1" pageScale="1" pageWidth="1100" pageHeight="850" math="0" shadow="0">
      <root>
        <mxCell id="0" />
        <mxCell id="1" parent="0" />
        <mxCell id="xHafQDAboFbrmeWprMl6-1" value="secretary" style="shape=umlActor;verticalLabelPosition=bottom;verticalAlign=top;html=1;" vertex="1" parent="1">
          <mxGeometry x="90" y="110" width="30" height="60" as="geometry" />
        </mxCell>
      </root>
    </mxGraphModel>
  </diagram>
</mxfile>
